<?xml version="1.0" encoding="utf-8"?>
<!-- Generator: Adobe Illustrator 15.0.0, SVG Export Plug-In . SVG Version: 6.00 Build 0)  -->
<!DOCTYPE svg PUBLIC "-//W3C//DTD SVG 1.1//EN" "http://www.w3.org/Graphics/SVG/1.1/DTD/svg11.dtd">
<svg version="1.1" id="Layer_1" xmlns="http://www.w3.org/2000/svg" xmlns:xlink="http://www.w3.org/1999/xlink" x="0px" y="0px"
	 width="143.698px" height="183.193px" viewBox="0 0 143.698 183.193" enable-background="new 0 0 143.698 183.193"
	 xml:space="preserve">
<g>
	<g>
		<path fill="#231F20" d="M98.511,55.645V40.932h41.356v14.713h-13.521v82.71h-14.314v-82.71H98.511z"/>
	</g>
	<path fill="#231F20" d="M71.664,3.848V3.829c-0.046,0-0.265,0.019-0.265,0.019c-4.797,0.202-5,5.641-5,5.641l4.18,169.952
		c0,0,0.289,0.186,0.82,0.241v0.021c0.055,0,0.082-0.01,0.132-0.01s0.077,0.01,0.133,0.01v-0.021
		c0.534-0.056,0.823-0.241,0.823-0.241L76.663,9.489C76.663,9.489,76.459,4.05,71.664,3.848z M73.083,18.5l-0.836,28.227
		c0,0-0.135,0.358-0.523,0.431v0.028c-0.023,0-0.038-0.012-0.06-0.014c-0.022,0.002-0.037,0.014-0.062,0.014v-0.028
		c-0.389-0.073-0.521-0.431-0.521-0.431L70.245,18.5c0,0-0.288-4.121,1.357-4.323v-0.019c0.021,0,0.04,0.008,0.062,0.009
		c0.021-0.001,0.038-0.009,0.06-0.009v0.019C73.37,14.379,73.083,18.5,73.083,18.5z"/>
	<g>
		<path fill="#231F20" d="M4.054,60.976c0-4.639,1.193-21.074,18.688-21.074c17.497,0,18.69,16.436,18.69,21.074v55.405
			c0,6.894-0.796,23.063-18.69,23.063c-17.893,0-18.688-16.17-18.688-23.063v-6.098h14.315c0,13.123,0.265,16.701,4.373,16.701
			c3.581,0,4.375-3.18,4.375-10.604V98.089c-2.386,1.458-4.64,2.387-7.157,2.387c-14.713,0-15.907-15.11-15.907-20.544V60.976z
			 M27.117,56.735c0-1.194-1.06-4.375-4.375-4.375c-3.047,0-4.373,3.181-4.373,4.375v28.232c0,1.192,1.326,4.374,4.373,4.374
			c3.05,0,4.242-2.651,4.375-3.976V56.735z"/>
	</g>
</g>
</svg>
