<?xml version="1.0" encoding="utf-8"?>
<!-- Generator: Adobe Illustrator 15.0.0, SVG Export Plug-In . SVG Version: 6.00 Build 0)  -->
<!DOCTYPE svg PUBLIC "-//W3C//DTD SVG 1.1//EN" "http://www.w3.org/Graphics/SVG/1.1/DTD/svg11.dtd">
<svg version="1.1" id="Layer_1" xmlns="http://www.w3.org/2000/svg" xmlns:xlink="http://www.w3.org/1999/xlink" x="0px" y="0px"
	 width="402.857px" height="182.948px" viewBox="0 0 402.857 182.948" enable-background="new 0 0 402.857 182.948"
	 xml:space="preserve">
<g>
	<g>
		<path fill="#231F20" d="M98.823,55.353V40.64h41.356v14.713h-13.521v82.71h-14.314v-82.71H98.823z"/>
		<path fill="#231F20" d="M141.502,138.063l14.714-97.424h17.495l14.713,97.424h-13.917l-2.651-19.884H158.07l-2.649,19.884H141.502
			z M165.759,72.319l-0.398-2.518h-0.795l-0.398,2.518l-4.108,30.751h9.808L165.759,72.319z"/>
		<path fill="#231F20" d="M197.701,40.64h14.316v97.424h-14.316V40.64z"/>
		<path fill="#231F20" d="M225.269,40.64h14.315v84.168h18.954v13.256h-33.27V40.64z"/>
		<path fill="#231F20" d="M282.528,139.125c-19.22,0-19.087-21.077-19.087-21.077V60.655c0,0-0.133-21.074,19.087-21.074
			c19.219,0,19.086,21.074,19.086,21.074v57.393C301.614,118.048,301.747,139.125,282.528,139.125z M282.528,53.498
			c-5.037,0-4.771,7.157-4.771,7.157v57.393c0,0-0.266,7.158,4.771,7.158c5.038,0,4.772-7.158,4.772-7.158V60.655
			C287.301,60.655,287.566,53.498,282.528,53.498z"/>
		<path fill="#231F20" d="M338.338,138.063l-7.424-41.09h-3.843v41.09h-14.316V40.64h14.316c16.966,0,24.387,9.81,24.387,28.102
			c0,9.675-2.517,18.423-7.951,22.135l9.145,47.187H338.338z M327.071,54.822v28.896c3.976,0,10.604-0.531,10.604-14.448
			C337.675,55.353,331.047,54.822,327.071,54.822z"/>
		<path fill="#231F20" d="M378.478,39.581c17.232-0.398,20.014,14.978,20.014,25.847l-14.047,1.325c0-6.494-0.93-14.05-5.701-14.05
			c-3.713,0.132-4.906,4.109-4.906,9.677c0,6.626,5.699,14.05,11.27,22.135c6.625,9.939,13.385,19.618,13.385,30.089
			c0,12.99-4.24,24.522-19.881,24.522c-18.424,0-20.812-13.919-20.812-28.365l14.052-1.326c0,8.083,0.795,16.567,6.76,16.567
			c4.242,0,5.834-4.638,5.834-10.735c0-6.495-6.1-14.317-11.533-22.533c-6.76-9.941-13.123-19.883-13.123-30.354
			C359.788,51.775,364.957,39.846,378.478,39.581z"/>
	</g>
	<path fill="#231F20" d="M71.976,3.556V3.537c-0.046,0-0.265,0.019-0.265,0.019c-4.796,0.202-5,5.641-5,5.641l4.179,169.952
		c0,0,0.29,0.186,0.82,0.241v0.021c0.055,0,0.083-0.01,0.132-0.01c0.05,0,0.077,0.01,0.133,0.01v-0.021
		c0.534-0.056,0.823-0.241,0.823-0.241L76.975,9.197C76.975,9.197,76.771,3.758,71.976,3.556z M73.395,18.208l-0.836,28.227
		c0,0-0.134,0.358-0.523,0.431v0.028c-0.024,0-0.039-0.012-0.06-0.014c-0.023,0.002-0.037,0.014-0.062,0.014v-0.028
		c-0.389-0.073-0.521-0.431-0.521-0.431l-0.836-28.227c0,0-0.288-4.121,1.357-4.323v-0.019c0.021,0,0.04,0.008,0.062,0.009
		c0.02-0.001,0.039-0.009,0.06-0.009v0.019C73.681,14.087,73.395,18.208,73.395,18.208z"/>
	<g>
		<path fill="#231F20" d="M4.366,60.684c0-4.639,1.193-21.074,18.688-21.074c17.497,0,18.69,16.436,18.69,21.074v55.405
			c0,6.894-0.796,23.063-18.69,23.063c-17.893,0-18.688-16.17-18.688-23.063v-6.098h14.315c0,13.123,0.265,16.701,4.373,16.701
			c3.581,0,4.375-3.18,4.375-10.604V97.797c-2.386,1.458-4.64,2.387-7.157,2.387c-14.713,0-15.907-15.11-15.907-20.544V60.684z
			 M27.429,56.443c0-1.194-1.06-4.375-4.375-4.375c-3.047,0-4.373,3.181-4.373,4.375v28.232c0,1.192,1.326,4.374,4.373,4.374
			c3.05,0,4.242-2.651,4.375-3.976V56.443z"/>
	</g>
</g>
</svg>
